<?xml version="1.0" encoding="UTF-8"?>
<svg width="33px" height="27px" viewBox="0 0 33 27" version="1.1" xmlns="http://www.w3.org/2000/svg" xmlns:xlink="http://www.w3.org/1999/xlink">
    <title>rrss-twitter</title>
    <g id="RECURSOS" stroke="none" stroke-width="1" fill="none" fill-rule="evenodd">
        <g id="Fill-3" transform="translate(-8.000000, -11.000000)" fill="#004571">
            <path d="M40.2585759,14.1008556 C39.0710571,14.6270736 37.7968433,14.9839341 36.4581124,15.1432108 C37.8250696,14.3246495 38.8714571,13.0262418 39.3674327,11.4838786 C38.0851543,12.2419552 36.6698093,12.7923671 35.1617209,13.0907589 C33.9560566,11.8024321 32.2382875,11 30.3330153,11 C26.6777154,11 23.7159749,13.9637567 23.7159749,17.6170404 C23.7159749,18.1351938 23.7724274,18.6412502 23.8873486,19.1251288 C18.3872614,18.8468986 13.5121842,16.2137923 10.2480195,12.2096966 C9.67744595,13.1855185 9.35284403,14.3226333 9.35284403,15.5363622 C9.35284403,17.8327696 10.5222174,19.8569952 12.2964391,21.0424979 C11.2117445,21.006207 10.191567,20.7078152 9.29840768,20.2118396 L9.29840768,20.2945022 C9.29840768,23.5001982 11.5807019,26.1756438 14.6049434,26.7845244 C14.0504991,26.9337203 13.4658125,27.0163829 12.8609642,27.0163829 C12.4355542,27.0163829 12.0222412,26.9740435 11.6169928,26.8933971 C12.4597481,29.5244872 14.9013191,31.4358078 17.7965263,31.488228 C15.5323775,33.2624497 12.6795097,34.3169019 9.57865406,34.3169019 C9.04437139,34.3169019 8.51815338,34.2846433 8,34.2261746 C10.9294819,36.1072528 14.4053435,37.2040444 18.143306,37.2040444 C30.316886,37.2040444 36.9702173,27.1212233 36.9702173,18.3771331 L36.9480395,17.5202647 C38.2484634,16.5928306 39.3734812,15.4274895 40.2585759,14.1008556"></path>
        </g>
    </g>
</svg>