<?xml version="1.0" encoding="UTF-8"?>
<svg width="36px" height="36px" viewBox="0 0 36 36" version="1.1" xmlns="http://www.w3.org/2000/svg" xmlns:xlink="http://www.w3.org/1999/xlink">
    <title>rrss-instagram</title>
    <g id="RECURSOS" stroke="none" stroke-width="1" fill="none" fill-rule="evenodd">
        <g id="Group" transform="translate(-6.000000, -6.000000)" fill="#004571">
            <g id="Group-9" transform="translate(6.000000, 6.000000)">
                <path d="M17.9682192,32.0917539 C20.8719394,32.0917539 23.7757644,32.0958472 26.6794845,32.0907044 C29.8278577,32.0850367 32.0802192,29.8486286 32.0835778,26.7130601 C32.0898752,20.921993 32.0897703,15.130821 32.0835778,9.33964898 C32.0802192,6.20282099 29.8291172,3.96305423 26.6815837,3.96032536 C20.9090939,3.95528746 15.1366041,3.95528746 9.36411429,3.96022041 C6.19579942,3.96294927 3.96138542,6.20922332 3.95918134,9.39002799 C3.95529796,15.1461446 3.95540292,20.9023662 3.95918134,26.6584828 C3.96128047,29.864477 6.19663907,32.0875557 9.41438834,32.0911242 C12.2657353,32.0942729 15.1169773,32.0917539 17.9682192,32.0917539 M0.0630997085,9.20824373 C0.0953212828,4.76240117 3.00260991,1.16229621 7.29290729,0.257363265 C7.93733878,0.121444898 8.61021341,0.0687568513 9.27028338,0.067077551 C15.1126741,0.0529084548 20.9552746,0.0447218659 26.7976653,0.0635090379 C31.2731055,0.0778880466 34.8848606,2.99409796 35.7891638,7.30696093 C35.9243475,7.95170729 35.9749364,8.62489679 35.9765108,9.28517668 C35.9905749,15.1112991 35.9954029,20.9375265 35.9812338,26.763649 C35.9701085,31.2714157 33.0566274,34.8973399 28.7251872,35.7993341 C28.0804408,35.9335732 27.4073563,35.9822729 26.7470764,35.9838472 C20.9221085,35.9975965 15.0971405,36.003684 9.27217259,35.9880455 C4.77049329,35.9758706 1.1395312,33.0487452 0.249187172,28.7180397 C0.109595335,28.0391825 0.0717061224,27.329993 0.0669830904,26.6342379 C0.0474612245,23.7650484 0.0587965015,20.895544 0.0589014577,18.0261446 C0.0591113703,15.0868443 0.041793586,12.1474391 0.0630997085,9.20824373 Z" id="Fill-3"></path>
                <path d="M17.9972711,23.3725921 C20.9023557,23.3851382 23.3556035,20.9535114 23.3679305,18.0493714 C23.3802682,15.1449166 20.9473819,12.6899895 18.0450262,12.6779813 C15.139102,12.6661644 12.6877434,15.0965318 12.6755237,18.0016163 C12.6634985,20.9079603 15.0929213,23.3599487 17.9972711,23.3725921 M27.2690032,18.0270157 C27.2677434,23.1258962 23.1330962,27.2656863 18.0329563,27.2744113 C12.9181224,27.283109 8.75482216,23.1115172 8.77437987,17.9972082 C8.7940758,12.8941294 12.9416327,8.76493994 18.0366297,8.77625194 C23.1370845,8.78750554 27.2702624,12.92887 27.2690032,18.0270157" id="Fill-5"></path>
                <path d="M27.5658717,10.6745436 C26.3815452,10.6695918 25.3967405,9.69108455 25.3848805,8.50770262 C25.3729155,7.31099125 26.3860583,6.29574927 27.5848688,6.30305658 C28.7669913,6.31023324 29.7535802,7.29230904 29.76607,8.47432653 C29.7786647,9.67261224 28.7718192,10.6795627 27.5658717,10.6745436" id="Fill-7"></path>
            </g>
        </g>
    </g>
</svg>