<?xml version="1.0" encoding="UTF-8"?>
<svg width="33px" height="32px" viewBox="0 0 33 32" version="1.1" xmlns="http://www.w3.org/2000/svg" xmlns:xlink="http://www.w3.org/1999/xlink">
    <title>rrss-linkedin</title>
    <defs>
        <polygon id="path-1" points="0.0628484536 0.0641681482 20.9932165 0.0641681482 20.9932165 21.9936508 0.0628484536 21.9936508"></polygon>
    </defs>
    <g id="RECURSOS" stroke="none" stroke-width="1" fill="none" fill-rule="evenodd">
        <g id="Group" transform="translate(-8.000000, -8.000000)">
            <g id="Group-2" transform="translate(8.000000, 8.000000)">
                <g id="Group-3" transform="translate(12.000000, 10.000000)">
                    <mask id="mask-2" fill="white">
                        <use xlink:href="#path-1"></use>
                    </mask>
                    <g id="Clip-2"></g>
                    <path d="M14.3655082,21.9914293 L14.3655082,21.5436899 C14.3655082,18.2886932 14.3810237,15.0336248 14.3561268,11.7787713 C14.3485495,10.7808169 14.307632,9.77118176 14.1472093,8.78856287 C13.7457557,6.32965081 12.2125392,5.54660847 9.93486907,5.87381368 C8.13449794,6.13243909 7.07150825,7.27794397 6.74351856,9.25163779 C6.63086907,9.92940977 6.58987938,10.625527 6.58692062,11.3134749 C6.57198247,14.8068169 6.58035361,18.3003023 6.57999278,21.793716 C6.57999278,21.8516899 6.57284845,21.9095205 6.56721959,21.9936508 L0.0628484536,21.9936508 L0.0628484536,0.490549837 L6.56815773,0.490549837 L6.56815773,3.26985928 C6.62985876,3.23381368 6.6660134,3.22507101 6.68015773,3.20264104 C7.78175567,1.45854984 9.43166289,0.53010684 11.4195186,0.215943974 C13.3553433,-0.0899778502 15.2769515,0.0387973941 17.0963742,0.857813681 C18.7301887,1.59334463 19.7131474,2.89714919 20.2747351,4.54743583 C20.7837144,6.04307752 20.9478897,7.59676482 20.9587866,9.16091466 C20.9884464,13.4051948 20.9845495,17.6496899 20.9932814,21.8941134 C20.9932814,21.9167583 20.9836113,21.9394033 20.9717763,21.9914293 L14.3655082,21.9914293 Z" id="Fill-1" fill="#004571" mask="url(#mask-2)"></path>
                </g>
                <polygon id="Fill-4" fill="#004571" points="0 32 7 32 7 10 0 10"></polygon>
                <path d="M3.49996454,7 C1.55963079,7.00281483 0.00745346194,5.43681235 0,3.46883549 C-0.00702233866,1.57702557 1.57762946,0.00314375387 3.49279069,0 C5.42678327,-0.0031981526 7.00797625,1.58689076 7,3.5269376 C6.99215536,5.42041307 5.40314801,6.99724164 3.49996454,7" id="Fill-6" fill="#004571"></path>
            </g>
        </g>
    </g>
</svg>