<?xml version="1.0" encoding="UTF-8"?>
<svg width="20px" height="39px" viewBox="0 0 20 39" version="1.1" xmlns="http://www.w3.org/2000/svg" xmlns:xlink="http://www.w3.org/1999/xlink">
    <title>rrss-facebook</title>
    <defs>
        <polygon id="path-1" points="0 0 20 0 20 39 0 39"></polygon>
    </defs>
    <g id="RECURSOS" stroke="none" stroke-width="1" fill="none" fill-rule="evenodd">
        <g id="Group" transform="translate(-14.000000, -4.000000)">
            <g id="Group-3" transform="translate(14.000000, 4.000000)">
                <mask id="mask-2" fill="white">
                    <use xlink:href="#path-1"></use>
                </mask>
                <g id="Clip-2"></g>
                <path d="M0,21.1983126 L0,14.281399 C0.0410699811,14.2807553 0.082203538,14.2795324 0.123273519,14.2795324 C1.88082712,14.2794037 3.63838072,14.2794681 5.39587075,14.2794037 C5.54495605,14.2794037 5.69404136,14.2770222 5.84293593,14.2804335 C5.90752897,14.2818495 5.92520305,14.25752 5.92513947,14.1939287 C5.92323219,12.4633808 5.92062559,10.7328329 5.92463086,9.00234941 C5.92545735,8.6596125 5.94700955,8.31661813 5.96951539,7.97446049 C6.00206621,7.47911715 6.08090023,6.98995273 6.1864361,6.50529377 C6.44862279,5.3008551 6.9061144,4.18330749 7.63755424,3.19023935 C8.50390197,2.01399201 9.6295119,1.1852445 10.9746491,0.653600006 C11.5954035,0.408181067 12.2359299,0.240062979 12.8940668,0.136566085 C13.3864615,0.0590721426 13.8805092,-0.00200904634 14.3790073,-4.8172168e-05 C15.121255,0.00314005284 15.8635663,0.0125371588 16.6056233,0.030044096 C17.0957293,0.0416295692 17.5858989,0.0649936067 18.0753056,0.0961456567 C18.5947836,0.129035528 19.1135623,0.176342876 19.6324046,0.219788401 C19.7563774,0.230150963 19.8795238,0.250168086 20,0.265422292 L20,6.4546395 L19.8949727,6.4546395 C18.8003878,6.4546395 17.7058029,6.4525155 16.6111544,6.45592678 C16.3187692,6.45689223 16.0259389,6.4679628 15.7340623,6.4862421 C15.3176407,6.51230941 14.9113276,6.59443754 14.5218621,6.75058398 C13.8927794,7.00288984 13.4541062,7.44455382 13.2203379,8.0914094 C13.035078,8.60393786 12.98142,9.13802817 12.9795127,9.67720322 C12.9741723,11.1604656 12.9779869,12.6437923 12.9788769,14.1271191 C12.9790041,14.2867412 12.9517301,14.2793393 13.1256099,14.2793393 C15.2942448,14.2794681 17.4629432,14.2794681 19.6315781,14.2794681 L19.7581576,14.2794681 C19.7565046,14.312551 19.7568861,14.3326325 19.7544066,14.3524565 C19.7101578,14.6998277 19.665464,15.0471988 19.6212153,15.3945699 C19.5831333,15.6931532 19.54556,15.9916723 19.5075417,16.2902557 C19.4634836,16.6351166 19.4187898,16.9798488 19.3749225,17.3247097 C19.3365227,17.6258676 19.2991401,17.9270899 19.2607403,18.2281835 C19.2168094,18.5731088 19.1721156,18.9179053 19.1281848,19.2627662 C19.089785,19.5638598 19.0520845,19.8651465 19.0136847,20.1662401 C18.9750306,20.4700369 18.9343421,20.7734476 18.8977224,21.0774375 C18.8834814,21.1952232 18.8874867,21.1957381 18.7713972,21.1957381 C16.8931131,21.1958024 15.0148291,21.1956094 13.136545,21.1960599 C12.9577698,21.1960599 12.9787498,21.1747555 12.9787498,21.3520776 C12.9784955,27.1941812 12.9785591,33.0362847 12.9785591,38.8783883 C12.9785591,39.0000026 12.9784955,39.0000026 12.8573835,39.0000026 C10.5860101,39.0000026 8.31457317,39.0000026 6.04319977,39.0000026 C5.90110781,39.0000026 5.92431298,39.0022241 5.92424941,38.8772941 C5.92393153,33.0246993 5.9239951,27.1721688 5.92393153,21.3197026 C5.92393153,21.1958668 5.92393153,21.1958024 5.80434541,21.1958024 C3.90037669,21.1958024 1.99634439,21.1957381 0.0923756695,21.1958668 C0.0616049716,21.1958668 0.0307706979,20.1974759 0,20.1983126" id="Fill-1" fill="#004571" mask="url(#mask-2)"></path>
            </g>
        </g>
    </g>
</svg>